<?xml version="1.0" encoding="UTF-8" standalone="no"?>
<!DOCTYPE svg PUBLIC "-//W3C//DTD SVG 1.1//EN" "http://www.w3.org/Graphics/SVG/1.1/DTD/svg11.dtd">
<svg width="100%" height="100%" viewBox="0 0 2000 2000" version="1.1" xmlns="http://www.w3.org/2000/svg" xmlns:xlink="http://www.w3.org/1999/xlink" xml:space="preserve" xmlns:serif="http://www.serif.com/" style="fill-rule:evenodd;clip-rule:evenodd;stroke-linejoin:round;stroke-miterlimit:2;">
    <g transform="matrix(1.157776,0,0,1.157776,-106.386017,265.341547)">
        <circle cx="955.614" cy="634.543" r="127.937" style="fill:rgb(255,137,4);"/>
    </g>
    <g transform="matrix(1.737448,-0.105347,0.134761,3.040308,-896.600171,-1381.52518)">
        <path d="M713.476,880.125C780.142,848.393 812.803,765.788 963.184,876.983C978.928,888.624 992.768,879.085 1000.218,887.222C1008.931,896.738 1008.078,926.969 986.093,946.373C951.132,977.229 625.89,966.514 604.788,956.202C583.19,945.647 490.311,657.392 488.902,648.009C487.189,636.607 561.588,648.758 573.154,660.258C583.63,670.674 697.548,887.706 713.476,880.125Z" style="fill:rgb(255,137,4);"/>
    </g>
    <g transform="matrix(-1.737448,-0.105347,-0.134761,3.040308,2896.600171,-1381.52518)">
        <path d="M713.476,880.125C780.142,848.393 812.803,765.788 963.184,876.983C978.928,888.624 992.768,879.085 1000.218,887.222C1008.931,896.738 1008.078,926.969 986.093,946.373C951.132,977.229 625.89,966.514 604.788,956.202C583.19,945.647 490.311,657.392 488.902,648.009C487.189,636.607 561.588,648.758 573.154,660.258C583.63,670.674 697.548,887.706 713.476,880.125Z" style="fill:rgb(255,137,4);"/>
    </g>
</svg>
