<svg width="315" height="373" viewBox="0 0 315 373" fill="none" xmlns="http://www.w3.org/2000/svg">
<path d="M117.908 173.777C111.071 183.603 109.525 190.369 114.88 202.057C116.575 205.754 116.538 210.076 114.346 213.502L108.608 222.467C106.654 225.52 103.276 227.202 99.7311 227.957C92.5314 229.491 91.2689 233.934 93.4426 243.144C94.1095 245.97 93.8432 248.962 92.4617 251.516L71.0203 291.151C69.7202 293.554 69.1942 296.428 70.3271 298.915C72.0045 302.597 74.718 304.398 80.2878 304.871C83.4614 305.14 86.466 303.567 88.4918 301.109L129.358 251.532C131.448 248.997 134.561 247.529 137.846 247.529H182.916C184.079 247.529 185.245 247.352 186.337 246.955C196.477 243.267 198.24 238.797 197.535 230.965C197.323 228.607 196.188 226.44 194.514 224.766L165.595 195.846C161.813 192.064 161.299 186.111 164.377 181.737L168.062 176.5C171.319 171.872 177.557 170.47 182.481 173.261L197.092 181.54C205.18 186.31 209.46 186.791 215.373 182.416C216.134 181.853 216.783 181.153 217.341 180.389L243.122 145.11C244.954 142.601 245.891 139.321 244.523 136.532C243.21 133.856 241.227 132.307 238.027 131.36C234.389 130.283 230.614 132.124 228.29 135.123L216.769 149.99C212.33 155.717 203.662 155.663 199.296 149.88L182.538 127.686C180.459 124.933 177.209 123.315 173.759 123.315H112.474C105.231 122.364 101.298 123.394 96.0327 128.786C95.0771 129.765 94.372 130.959 93.8917 132.24L79.6849 170.126C78.7992 172.488 78.6963 175.11 79.6761 177.434C82.6316 184.446 85.8664 185.876 91.9438 182.978C93.735 182.124 95.1216 180.621 96.0748 178.881L109.287 154.753C111.151 151.35 115.122 149.691 118.853 150.757C123.951 152.214 126.397 158.01 123.883 162.679L117.908 173.777Z" fill="white"/>
<ellipse cx="181" cy="92.5" rx="24" ry="24.5" fill="white"/>
</svg>
